<?xml version="1.0" encoding="UTF-8" standalone="no"?><!DOCTYPE svg PUBLIC "-//W3C//DTD SVG 1.1//EN" "http://www.w3.org/Graphics/SVG/1.1/DTD/svg11.dtd"><svg width="100%" height="100%" viewBox="0 0 988 954" version="1.1" xmlns="http://www.w3.org/2000/svg" xmlns:xlink="http://www.w3.org/1999/xlink" xml:space="preserve" xmlns:serif="http://www.serif.com/" style="fill-rule:evenodd;clip-rule:evenodd;stroke-linejoin:round;stroke-miterlimit:2;"><path d="M668.297,290.798l33.81,-33.81l0,-133.865l41.502,0l0,92.363l85.304,-85.304l29.346,29.346l-85.304,85.304l93.055,0l0,41.502l-134.557,0l-35.892,35.892c-8.6,-11.208 -17.706,-21.707 -27.265,-31.428Z" style="fill:#faffc8;"/><path d="M708.939,340.836l154.404,0l-103.906,103.906c-4.862,-14.578 -10.357,-28.685 -16.436,-42.257l20.147,-20.147l-29.799,-0c-7.456,-14.576 -15.615,-28.44 -24.41,-41.502Z" style="fill:#faffc6;"/><path d="M768.122,473.816l40.989,0l94.657,-94.657l29.346,29.346l-65.31,65.31l119.946,0l0,41.502l-119.254,0l64.619,64.619l-29.346,29.346l-93.965,-93.965l-32.554,-0c-2.493,-14.143 -5.547,-27.993 -9.127,-41.502Z" style="fill:#faffc8;"/><path d="M783.739,567.309l79.605,79.605l-79.532,0c0.941,-12.93 1.423,-26.043 1.423,-39.307c0,-13.603 -0.507,-27.046 -1.496,-40.298Z" style="fill:#faffc6;"/><path d="M776.729,702.799l89.282,-0l0,41.502l-92.363,0l83.634,83.634l-29.346,29.346l-73.252,-73.252c9.428,-25.621 16.869,-52.823 22.046,-81.231Z" style="fill:#faffc8;"/><path d="M743.61,811.364l0,54.646l-29.193,0c10.826,-17.014 20.603,-35.291 29.193,-54.646Z" style="fill:#faffc8;"/><path d="M273.334,866.011l-29.193,-0l0,-54.646c8.591,19.355 18.368,37.633 29.193,54.646Z" style="fill:#faffc8;"/><path d="M233.253,784.535l-73.438,73.438l-29.346,-29.346l84.326,-84.326l-91.671,0l0,-41.502l87.898,0c5.211,28.595 12.715,55.967 22.232,81.736Z" style="fill:#faffc8;"/><path d="M203.938,646.914l-79.532,0l79.605,-79.605c-0.989,13.251 -1.496,26.695 -1.496,40.298c0,13.264 0.482,26.377 1.423,39.307Z" style="fill:#faffc6;"/><path d="M210.501,515.318l-31.862,0l-94.657,94.657l-29.346,-29.346l65.31,-65.31l-119.946,0l0,-41.502l120.638,0l-66.002,-66.002l29.346,-29.346l95.349,95.349l40.297,-0c-3.58,13.509 -6.634,27.359 -9.127,41.502Z" style="fill:#faffc8;"/><path d="M228.313,444.742l-103.906,-103.906l154.404,0c-8.795,13.062 -16.954,26.926 -24.41,41.502l-29.799,0l20.147,20.147c-6.079,13.572 -11.574,27.68 -16.436,42.257Z" style="fill:#faffc6;"/><path d="M292.489,321.835l-35.501,-35.501l-133.865,0l0,-41.502l92.363,0l-85.995,-85.995l29.346,-29.346l85.304,85.304l0,-91.671l41.502,0l0,133.173l34.154,34.154c-9.573,9.705 -18.692,20.19 -27.307,31.386Z" style="fill:#faffc8;"/><path d="M339.561,272.074l0,-148.942l96.65,96.65c-14.57,3.978 -28.748,9.434 -42.446,16.247l-12.702,-12.702l-0,19.485c-14.464,8.264 -28.335,18.069 -41.502,29.262Z" style="fill:#faffc6;"/><path d="M473.124,213.011l0,-34.372l-94.657,-94.657l29.346,-29.346l65.31,65.31l0,-119.946l41.502,0l0,120.638l65.31,-65.31l29.346,29.346l-94.657,94.657l0,33.68c-6.855,-0.656 -13.774,-0.99 -20.751,-0.99c-6.977,0 -13.896,0.334 -20.751,0.99Z" style="fill:#faffc8;"/><path d="M551.539,219.781l94.1,-94.1l-0,144.249c-13.181,-10.951 -27.052,-20.52 -41.502,-28.557l0,-15.497l-10.152,10.152c-13.698,-6.813 -27.876,-12.269 -42.446,-16.247Z" style="fill:#faffc6;"/><path d="M473.27,952.891c-130.644,-15.088 -233.358,-164.029 -233.358,-345.285c0,-182.778 104.447,-332.696 236.656,-345.636c10.325,11.338 109.628,128.949 -1.485,345.636c-110.39,215.276 -13.755,332.094 -1.813,345.285Zm-181.793,-345.285c0,0 15.477,-91.292 55.336,-168.092c36.541,-70.406 95.354,-119.894 95.354,-119.894c0,0 -72.621,18.902 -117.038,106.341c-49.13,96.715 -33.652,181.646 -33.652,181.646Z" style="fill:#faffc8;"/><path d="M514.038,262c132.064,13.142 236.35,162.969 236.35,345.606c0,183.924 -105.76,334.574 -239.145,345.864c-9.154,-9.858 -110.969,-126.957 1.283,-345.864c111.015,-216.496 11.984,-334.09 1.512,-345.606Zm183.344,345.606c0,0 -15.477,91.292 -55.336,168.092c-36.541,70.406 -95.354,119.894 -95.354,119.894c0,0 72.621,-18.902 117.038,-106.341c49.13,-96.715 33.652,-181.646 33.652,-181.646Z" style="fill:#faffc8;"/></svg>